<svg width="120" height="24" viewBox="0 0 120 24" fill="none" xmlns="http://www.w3.org/2000/svg">
<path d="M25.5264 17.1748L11.9492 22.1641L11.7861 16.0303L25.5186 11.2861L25.5264 17.1748ZM33.5332 5.61035H25.3555L25.5186 11.2861L5.99414 14.6484V8.91406L25.0723 5.61035H0V0H33.5332V5.61035Z" fill="white"/>
<path d="M108.457 23.9998C104.911 23.9998 101.777 21.9338 101.777 18.5593C101.777 14.1863 106.701 12.8778 113.967 12.0514V11.7415C113.967 8.88353 112.417 7.88496 110.489 7.88496C108.664 7.88496 107.149 8.8491 107.046 10.8807H102.604C102.948 7.23073 105.978 4.54492 110.73 4.54492C115.137 4.54492 118.718 6.43876 118.718 12.7056C118.718 13.291 118.65 15.7358 118.65 17.423C118.65 20.3499 118.856 22.0027 119.2 23.5522H114.827C114.69 22.9668 114.586 22.1404 114.518 21.2451C113.209 23.1734 111.246 23.9998 108.457 23.9998ZM114.104 15.0815C108.802 15.6325 106.667 16.2523 106.667 18.3183C106.667 19.6612 107.734 20.7631 109.869 20.7631C112.83 20.7631 114.104 19.1447 114.104 16.4589V15.0815Z" fill="white"/>
<path d="M84.1758 19.7993L93.9203 8.78059H84.7267V5.02734H99.6018V8.78059L89.8572 19.7993H99.8773V23.5525H84.1758V19.7993Z" fill="white"/>
<path d="M71.3324 23.9998C67.7858 23.9998 64.6523 21.9338 64.6523 18.5593C64.6523 14.1863 69.5763 12.8778 76.8416 12.0514V11.7415C76.8416 8.88353 75.2922 7.88496 73.3639 7.88496C71.539 7.88496 70.0239 8.8491 69.9206 10.8807H65.4787C65.8231 7.23073 68.8532 4.54492 73.6049 4.54492C78.0124 4.54492 81.5934 6.43876 81.5934 12.7056C81.5934 13.291 81.5245 15.7358 81.5245 17.423C81.5245 20.3499 81.7311 22.0027 82.0755 23.5522H77.7025C77.5647 22.9668 77.4614 22.1404 77.3926 21.2451C76.0841 23.1734 74.1214 23.9998 71.3324 23.9998ZM76.9794 15.0815C71.6767 15.6325 69.5418 16.2523 69.5418 18.3183C69.5418 19.6612 70.6093 20.7631 72.7441 20.7631C75.7054 20.7631 76.9794 19.1447 76.9794 16.4589V15.0815Z" fill="white"/>
<path d="M63.6405 9.60699C62.9519 9.53812 62.3665 9.50369 61.6779 9.50369C59.3364 9.50369 57.7869 10.3645 57.7869 13.8423V23.5525H53.0352V5.02734H57.7181V8.26408C58.7855 5.99148 60.4727 5.06178 62.6075 5.06178C62.9174 5.06178 63.3306 5.09621 63.6405 5.13064V9.60699Z" fill="white"/>
<path d="M41.3825 0H46.1343V5.02728H49.9908V8.29845H46.1343V17.8709C46.1343 19.7648 46.7885 20.1435 48.4758 20.1435H49.9219V23.5524H46.4442C42.2089 23.5524 41.3825 22.244 41.3825 18.5596V8.29845H38.7656V5.02728H41.3825V0Z" fill="white"/>
</svg>
